<?xml version="1.0" encoding="utf-8"?>
<!-- Generator: Adobe Illustrator 21.1.0, SVG Export Plug-In . SVG Version: 6.00 Build 0)  -->
<svg version="1.1" id="Camada_1" xmlns="http://www.w3.org/2000/svg" xmlns:xlink="http://www.w3.org/1999/xlink" width="100px" height="100px" x="0px" y="0px"
	 viewBox="0 0 88 88" style="enable-background:new 0 0 88 88;" xml:space="preserve">
<g>
	<path fill="#00A94D" d="M490.7,3.5c-23.7,0-43,19.3-43,43c0,23.7,19.3,43,43,43c23.8,0,43-19.3,43-43C533.7,22.8,514.5,3.5,490.7,3.5z
		 M490.7,85.9c-21.8,0-39.4-17.6-39.4-39.4c0-21.8,17.6-39.4,39.4-39.4c21.8,0,39.4,17.6,39.4,39.4
		C530.1,68.3,512.5,85.9,490.7,85.9z"/>
	<path fill="#00A94D" d="M515.6,25.8h-49.9c-1.9,0-3.4,1.5-3.4,3.4v34.5c0,1.9,1.5,3.4,3.4,3.4h49.9c1.9,0,3.4-1.5,3.4-3.4V29.2
		C519.1,27.3,517.5,25.8,515.6,25.8z M515.3,27.5c0.5,0,1,0.4,1,1c0,0.5-0.4,1-1,1c-0.5,0-1-0.4-1-1
		C514.3,27.9,514.7,27.5,515.3,27.5z M511.7,27.5c0.5,0,1,0.4,1,1c0,0.5-0.4,1-1,1c-0.5,0-1-0.4-1-1
		C510.7,27.9,511.1,27.5,511.7,27.5z M508.1,27.5c0.5,0,1,0.4,1,1c0,0.5-0.4,1-1,1c-0.5,0-1-0.4-1-1
		C507.1,27.9,507.6,27.5,508.1,27.5z M517.2,61.9c0,1.8-1.5,3.3-3.4,3.3h-46.1c-1.9,0-3.4-1.5-3.4-3.3V34.3c0-1.8,1.5-3.3,3.4-3.3
		h46.1c1.9,0,3.4,1.5,3.4,3.3V61.9z"/>
	<g>
		<g>
			<path fill="#00A94D" d="M512.5,62.3h-27.1c-1.3,0-2.4-1.1-2.4-2.4v-3.9c0-1.3,1.1-2.4,2.4-2.4h27.1c1.3,0,2.4,1.1,2.4,2.4v3.9
				C514.9,61.2,513.8,62.3,512.5,62.3z M485.4,54.8c-0.6,0-1.2,0.5-1.2,1.2v3.9c0,0.6,0.5,1.2,1.2,1.2h27.1c0.6,0,1.2-0.5,1.2-1.2
				v-3.9c0-0.6-0.5-1.2-1.2-1.2H485.4z"/>
		</g>
		<g>
			<path fill="#00A94D" d="M512.5,51.1h-27.1c-1.3,0-2.4-1.1-2.4-2.4V37.3c0-1.3,1.1-2.4,2.4-2.4h27.1c1.3,0,2.4,1.1,2.4,2.4v11.4
				C514.9,50,513.8,51.1,512.5,51.1z M485.4,36.1c-0.6,0-1.2,0.5-1.2,1.2v11.4c0,0.6,0.5,1.2,1.2,1.2h27.1c0.6,0,1.2-0.5,1.2-1.2
				V37.3c0-0.6-0.5-1.2-1.2-1.2H485.4z"/>
		</g>
		<g>
			<rect x="466.6" y="35.5" fill="#00A94D" width="12.9" height="1.8"/>
		</g>
		<g>
			<rect x="466.6" y="41.6" fill="#00A94D" width="12.9" height="1.8"/>
		</g>
		<g>
			<rect x="466.6" y="53.8" fill="#00A94D" width="12.9" height="1.8"/>
		</g>
		<g>
			<rect x="466.6" y="47.7" fill="#00A94D" width="12.9" height="1.8"/>
		</g>
		<g>
			<rect x="466.6" y="59.8" fill="#00A94D" width="12.9" height="1.8"/>
		</g>
	</g>
</g>
<g>
	<path fill="#00A94D" d="M713-0.5c-23.7,0-43,19.3-43,43c0,23.7,19.3,43,43,43c23.8,0,43-19.3,43-43C756,18.8,736.8-0.5,713-0.5z
		 M713,81.9c-21.8,0-39.4-17.6-39.4-39.4c0-21.8,17.6-39.4,39.4-39.4c21.8,0,39.4,17.6,39.4,39.4C752.4,64.3,734.8,81.9,713,81.9z"
		/>
	<g>
		<g>
			<path fill="#00A94D" d="M730.5,33.9h-17.7c-1,0-1.7-0.8-1.7-1.7v-9.5c0-1,0.8-1.7,1.7-1.7h17.7c1,0,1.7,0.8,1.7,1.7v9.5
				C732.3,33.1,731.5,33.9,730.5,33.9z M712.8,22.2c-0.2,0-0.4,0.2-0.4,0.5v9.5c0,0.2,0.2,0.4,0.4,0.4h17.7c0.2,0,0.4-0.2,0.4-0.4
				v-9.5c0-0.2-0.2-0.5-0.4-0.5H712.8z"/>
		</g>
		<path fill="#00A94D" d="M737.5,18.5L737.5,18.5c-0.1-1.1-0.9-1.9-1.9-1.9h-27.8c-1.1,0-1.9,0.8-2,1.9l0,3.7h-1.1l0-1.7
			c0-0.9-0.6-1.6-1.5-1.7c-2.7-0.3-6.9-0.3-9.8,0c-0.8,0.2-1.4,0.9-1.3,1.8v1.6h-1.7c-1.1,0-1.9,0.8-1.9,1.9l0,42.3
			c0.1,1.1,0.8,1.9,1.9,2h45.2c1,0,1.8-0.8,1.9-2L737.5,18.5z M694.4,21c2.5-0.2,5.8-0.2,8.1,0l0,40.6c-1.3,0.3-2.7,0.5-4,0.5
			c-1.3,0-2.7-0.2-4-0.5V22.3h0V21z M690.8,66.1l0-41.5h1.2l0,17v20.5c0,0.9,0.6,1.6,1.4,1.7c1.6,0.4,3.3,0.7,5,0.7c0,0,0,0,0,0
			c1.7,0,3.3-0.2,5-0.7c0.8-0.2,1.3-0.8,1.3-1.7l0-37.5h3.3l0-5.6h27.1l0,47.2L690.8,66.1z"/>
		<g>
			<path class="st1" d="M712.5,42.6h4c0.4,0,0.7,0.3,0.7,0.7v2.1c0,0.4-0.3,0.7-0.7,0.7h-4c-0.4,0-0.7-0.3-0.7-0.7v-2.1
				C711.9,42.9,712.2,42.6,712.5,42.6L712.5,42.6z"/>
		</g>
		<g>
			<path class="st1" d="M712.4,36.5h4.3c0.3,0,0.5,0.2,0.5,0.5v1.5c0,0.3-0.2,0.5-0.5,0.5h-4.3c-0.3,0-0.5-0.2-0.5-0.5V37
				C711.9,36.7,712.1,36.5,712.4,36.5L712.4,36.5z"/>
		</g>
		<g>
			<path class="st1" d="M712.5,48h4c0.4,0,0.7,0.3,0.7,0.7v2.1c0,0.4-0.3,0.7-0.7,0.7h-4c-0.4,0-0.7-0.3-0.7-0.7v-2.1
				C711.9,48.3,712.2,48,712.5,48L712.5,48z"/>
		</g>
		<g>
			<path class="st1" d="M712.5,53.4h4c0.4,0,0.7,0.3,0.7,0.7v2.1c0,0.4-0.3,0.7-0.7,0.7h-4c-0.4,0-0.7-0.3-0.7-0.7V54
				C711.9,53.7,712.2,53.4,712.5,53.4L712.5,53.4z"/>
		</g>
		<g>
			<path class="st1" d="M712.5,58.7h4c0.4,0,0.7,0.3,0.7,0.7v2.1c0,0.4-0.3,0.7-0.7,0.7h-4c-0.4,0-0.7-0.3-0.7-0.7v-2.1
				C711.9,59,712.2,58.7,712.5,58.7L712.5,58.7z"/>
		</g>
		<g>
			<path class="st1" d="M719.7,42.6h4c0.4,0,0.7,0.3,0.7,0.7v2.1c0,0.4-0.3,0.7-0.7,0.7h-4c-0.4,0-0.7-0.3-0.7-0.7v-2.1
				C719,42.9,719.3,42.6,719.7,42.6L719.7,42.6z"/>
		</g>
		<g>
			<path class="st1" d="M719.5,36.5h4.3c0.3,0,0.5,0.2,0.5,0.5v1.5c0,0.3-0.2,0.5-0.5,0.5h-4.3c-0.3,0-0.5-0.2-0.5-0.5V37
				C719,36.7,719.3,36.5,719.5,36.5L719.5,36.5z"/>
		</g>
		<g>
			<path class="st1" d="M719.7,48h4c0.4,0,0.7,0.3,0.7,0.7v2.1c0,0.4-0.3,0.7-0.7,0.7h-4c-0.4,0-0.7-0.3-0.7-0.7v-2.1
				C719,48.3,719.3,48,719.7,48L719.7,48z"/>
		</g>
		<g>
			<path class="st1" d="M719.7,53.4h4c0.4,0,0.7,0.3,0.7,0.7v2.1c0,0.4-0.3,0.7-0.7,0.7h-4c-0.4,0-0.7-0.3-0.7-0.7V54
				C719,53.7,719.3,53.4,719.7,53.4L719.7,53.4z"/>
		</g>
		<g>
			<path class="st1" d="M719.7,58.7h4c0.4,0,0.7,0.3,0.7,0.7v2.1c0,0.4-0.3,0.7-0.7,0.7h-4c-0.4,0-0.7-0.3-0.7-0.7v-2.1
				C719,59,719.3,58.7,719.7,58.7L719.7,58.7z"/>
		</g>
		<g>
			<path class="st1" d="M726.9,42.6h4c0.4,0,0.7,0.3,0.7,0.7v2.1c0,0.4-0.3,0.7-0.7,0.7h-4c-0.4,0-0.7-0.3-0.7-0.7v-2.1
				C726.2,42.9,726.5,42.6,726.9,42.6L726.9,42.6z"/>
		</g>
		<g>
			<path class="st1" d="M726.7,36.5h4.3c0.3,0,0.5,0.2,0.5,0.5v1.5c0,0.3-0.2,0.5-0.5,0.5h-4.3c-0.3,0-0.5-0.2-0.5-0.5V37
				C726.2,36.7,726.4,36.5,726.7,36.5L726.7,36.5z"/>
		</g>
		<g>
			<path class="st1" d="M726.9,48h4c0.4,0,0.7,0.3,0.7,0.7v2.1c0,0.4-0.3,0.7-0.7,0.7h-4c-0.4,0-0.7-0.3-0.7-0.7v-2.1
				C726.2,48.3,726.5,48,726.9,48L726.9,48z"/>
		</g>
		<g>
			<path class="st1" d="M726.9,53.4h4c0.4,0,0.7,0.3,0.7,0.7v2.1c0,0.4-0.3,0.7-0.7,0.7h-4c-0.4,0-0.7-0.3-0.7-0.7V54
				C726.2,53.7,726.5,53.4,726.9,53.4L726.9,53.4z"/>
		</g>
		<g>
			<path class="st1" d="M726.9,58.7h4c0.4,0,0.7,0.3,0.7,0.7v2.1c0,0.4-0.3,0.7-0.7,0.7h-4c-0.4,0-0.7-0.3-0.7-0.7v-2.1
				C726.2,59,726.5,58.7,726.9,58.7L726.9,58.7z"/>
		</g>
	</g>
</g>
<g>
	<path fill="#00A94D" d="M44,1C20.3,1,1,20.3,1,44c0,23.7,19.3,43,43,43c23.7,0,43-19.3,43-43C87,20.3,67.7,1,44,1z M44,83.4
		C22.2,83.4,4.6,65.8,4.6,44C4.6,22.2,22.2,4.6,44,4.6c21.8,0,39.4,17.6,39.4,39.4C83.4,65.8,65.8,83.4,44,83.4z"/>
	<g>
		<g>
			<g>
				<path fill="#00A94D" d="M54,32.1c-1.9,0-3.5-1.6-3.5-3.5v-9.1l12.6,12.6H54z"/>
			</g>
			<g>
				<path fill="#00A94D" d="M28.6,19.8c-1.8,0-3.3,1.5-3.3,3.3v41.6c0,1.8,1.5,3.3,3.3,3.3h30.9c1.8,0,3.3-1.5,3.3-3.3v-33l2.1,2.1
					v30.9c0,3-2.4,5.4-5.4,5.4H28.6c-3,0-5.4-2.4-5.4-5.4V23.2c0-3,2.4-5.4,5.4-5.4h20.1l2.1,2.1H28.6z"/>
			</g>
		</g>
		<g>
			<path fill="#00A94D" d="M50.8,19.9v8.7c0,1.8,1.5,3.3,3.3,3.3h8.7l2.1,2.1H54.1c-3,0-5.4-2.4-5.4-5.4V17.8L50.8,19.9z"/>
		</g>
	</g>
	<g>
		<path fill="#00A94D" d="M52.7,41.4c0.7-0.7,0.7-1.8,0-2.5c-0.7-0.7-1.8-0.7-2.6,0L45.1,44l2.5,2.5L52.7,41.4z"/>
		<path fill="#00A94D" d="M46.7,47.4l-2.6-2.5l-0.4-0.4c-0.2-0.2-0.3-0.5-0.2-0.7c0.1-0.4,0.2-0.9,0.1-1.4c0-0.6-0.2-1.1-0.4-1.6
			c-0.2-0.5-0.6-0.9-1-1.3c-0.4-0.4-0.9-0.6-1.4-0.8c-0.7-0.2-1.4-0.3-2.1-0.2c-0.4,0.1-0.5,0.5-0.2,0.8l1.7,1.7
			c0.7,0.7,0.7,1.9,0,2.6c-0.4,0.4-0.8,0.5-1.3,0.5c-0.5,0-0.9-0.2-1.3-0.5L36,41.8c-0.1-0.1-0.2-0.1-0.3-0.1
			c-0.2,0-0.4,0.1-0.4,0.4c0,0.2,0,0.4,0,0.6c0,2.1,1.7,4.1,3.9,4.3c0.1,0,0.3,0,0.4,0c0.4,0,0.7,0,1.1-0.1c0.3-0.1,0.5,0,0.7,0.2
			l1.1,1.1l1.1,1.1l6.6,6.6c0.4,0.4,0.8,0.5,1.3,0.5c0.5,0,0.9-0.2,1.3-0.5c0.7-0.7,0.7-1.8,0-2.5L46.7,47.4z"/>
		<path fill="#00A94D" d="M40.1,49c-0.4,0.4-0.4,0.9,0,1.3c0,0,0,0.1,0,0.2l-1.8,1.7c-0.1,0.1-0.3,0.2-0.5,0.2l-0.4,0
			c-0.1,0-0.3,0-0.4,0.2l-2.2,2.7c-0.1,0.2-0.1,0.4,0,0.6l0.5,0.5l0.5,0.5c0.2,0.2,0.4,0.2,0.6,0l2.7-2.2c0.1-0.1,0.2-0.3,0.2-0.4
			l0-0.4c0-0.2,0.1-0.4,0.2-0.5l1.7-1.7c0,0,0.1,0,0.2,0c0.4,0.4,0.9,0.4,1.3,0l0.6-0.6l-2.6-2.6L40.1,49z"/>
	</g>
</g>
<g>
	<path fill="#00A94D" d="M266.5,1c-23.7,0-43,19.3-43,43c0,23.7,19.3,43,43,43c23.8,0,43-19.3,43-43C309.5,20.3,290.2,1,266.5,1z
		 M266.5,83.4c-21.8,0-39.4-17.6-39.4-39.4c0-21.8,17.6-39.4,39.4-39.4c21.8,0,39.4,17.6,39.4,39.4
		C305.9,65.8,288.2,83.4,266.5,83.4z"/>
	<path fill="#00A94D" d="M282.9,27.3v33.4H250V27.3H282.9 M283.4,25.3h-33.8c-0.9,0-1.6,0.7-1.6,1.6v34.3c0,0.9,0.7,1.6,1.6,1.6h33.8
		c0.9,0,1.6-0.7,1.6-1.6V26.9C285,26,284.3,25.3,283.4,25.3L283.4,25.3z"/>
	<path fill="#00A94D" d="M272.3,37.3c0.4,0,0.8,0.4,0.8,0.8v11.5c0,0.4-0.4,0.8-0.8,0.8h-11.5c-0.4,0-0.8-0.4-0.8-0.8V38.1
		c0-0.4,0.4-0.8,0.8-0.8H272.3 M272.3,36.5h-11.5c-0.9,0-1.6,0.7-1.6,1.6v11.5c0,0.9,0.7,1.6,1.6,1.6h11.5c0.9,0,1.6-0.7,1.6-1.6
		V38.1C273.9,37.2,273.2,36.5,272.3,36.5L272.3,36.5z"/>
	<g>
		<g>
			<rect x="254.6" y="63.8" fill="#00A94D" width="2.2" height="3.6"/>
		</g>
		<g>
			<rect x="260" y="63.8" fill="#00A94D" width="2.2" height="3.6"/>
		</g>
		<g>
			<rect x="265.4" y="63.8" fill="#00A94D" width="2.2" height="3.6"/>
		</g>
		<g>
			<rect x="270.8" y="63.8" fill="#00A94D" width="2.2" height="3.6"/>
		</g>
		<g>
			<rect x="276.1" y="63.8" fill="#00A94D" width="2.2" height="3.6"/>
		</g>
	</g>
	<g>
		<g>
			<rect x="254.6" y="20.6" fill="#00A94D" width="2.2" height="3.6"/>
		</g>
		<g>
			<rect x="260" y="20.6" fill="#00A94D" width="2.2" height="3.6"/>
		</g>
		<g>
			<rect x="265.4" y="20.6" fill="#00A94D" width="2.2" height="3.6"/>
		</g>
		<g>
			<rect x="270.8" y="20.6" fill="#00A94D" width="2.2" height="3.6"/>
		</g>
		<g>
			<rect x="276.1" y="20.6" fill="#00A94D" width="2.2" height="3.6"/>
		</g>
	</g>
	<g>
		<g>
			<rect x="243" y="32.1" fill="#00A94D" width="3.6" height="2.2"/>
		</g>
		<g>
			<rect x="243" y="37.5" fill="#00A94D" width="3.6" height="2.2"/>
		</g>
		<g>
			<rect x="243" y="42.9" fill="#00A94D" width="3.6" height="2.2"/>
		</g>
		<g>
			<rect x="243" y="48.3" fill="#00A94D" width="3.6" height="2.2"/>
		</g>
		<g>
			<rect x="243" y="53.7" fill="#00A94D" width="3.6" height="2.2"/>
		</g>
	</g>
	<g>
		<g>
			<rect x="286.4" y="32.1" fill="#00A94D" width="3.6" height="2.2"/>
		</g>
		<g>
			<rect x="286.4" y="37.5" fill="#00A94D" width="3.6" height="2.2"/>
		</g>
		<g>
			<rect x="286.4" y="42.9" fill="#00A94D" width="3.6" height="2.2"/>
		</g>
		<g>
			<rect x="286.4" y="48.3" fill="#00A94D" width="3.6" height="2.2"/>
		</g>
		<g>
			<rect x="286.4" y="53.7" fill="#00A94D" width="3.6" height="2.2"/>
		</g>
	</g>
	<g>
		<g>
			<rect x="276.1" y="38.5" fill="#00A94D" width="2.3" height="2.2"/>
		</g>
		<g>
			<rect x="276.1" y="42.7" fill="#00A94D" width="2.3" height="2.2"/>
		</g>
		<g>
			<rect x="276.1" y="47" fill="#00A94D" width="2.3" height="2.2"/>
		</g>
	</g>
	<g>
		<g>
			<rect x="254.6" y="38.5" fill="#00A94D" width="2.3" height="2.2"/>
		</g>
		<g>
			<rect x="254.6" y="42.7" fill="#00A94D" width="2.3" height="2.2"/>
		</g>
		<g>
			<rect x="254.6" y="47" fill="#00A94D" width="2.3" height="2.2"/>
		</g>
	</g>
	<g>
		<g>
			<rect x="269.7" y="53.6" fill="#00A94D" width="2.2" height="2.3"/>
		</g>
		<g>
			<rect x="265.4" y="53.6" fill="#00A94D" width="2.2" height="2.3"/>
		</g>
		<g>
			<rect x="261.2" y="53.6" fill="#00A94D" width="2.2" height="2.3"/>
		</g>
	</g>
	<g>
		<g>
			<rect x="269.7" y="32.1" fill="#00A94D" width="2.2" height="2.3"/>
		</g>
		<g>
			<rect x="265.4" y="32.1" fill="#00A94D" width="2.2" height="2.3"/>
		</g>
		<g>
			<rect x="261.2" y="32.1" fill="#00A94D" width="2.2" height="2.3"/>
		</g>
	</g>
</g>
</svg>
