<?xml version="1.0" encoding="utf-8"?>
<!-- Generator: Adobe Illustrator 21.1.0, SVG Export Plug-In . SVG Version: 6.00 Build 0)  -->
<svg version="1.1" id="Camada_1" xmlns="http://www.w3.org/2000/svg" xmlns:xlink="http://www.w3.org/1999/xlink" width="100px" height="100px" x="0px" y="0px"
	 viewBox="0 0 88 88" style="enable-background:new 0 0 88 88;" xml:space="preserve">
<g>
	<path fill="#00A94D" d="M310.7,3.5c-23.7,0-43,19.3-43,43c0,23.7,19.3,43,43,43c23.8,0,43-19.3,43-43C353.7,22.8,334.4,3.5,310.7,3.5z
		 M310.7,85.9c-21.8,0-39.4-17.6-39.4-39.4c0-21.8,17.6-39.4,39.4-39.4c21.8,0,39.4,17.6,39.4,39.4
		C350.1,68.3,332.4,85.9,310.7,85.9z"/>
	<path fill="#00A94D" d="M335.6,25.8h-49.9c-1.9,0-3.4,1.5-3.4,3.4v34.5c0,1.9,1.5,3.4,3.4,3.4h49.9c1.9,0,3.4-1.5,3.4-3.4V29.2
		C339.1,27.3,337.5,25.8,335.6,25.8z M335.2,27.5c0.5,0,1,0.4,1,1c0,0.5-0.4,1-1,1c-0.5,0-1-0.4-1-1
		C334.3,27.9,334.7,27.5,335.2,27.5z M331.7,27.5c0.5,0,1,0.4,1,1c0,0.5-0.4,1-1,1c-0.5,0-1-0.4-1-1
		C330.7,27.9,331.1,27.5,331.7,27.5z M328.1,27.5c0.5,0,1,0.4,1,1c0,0.5-0.4,1-1,1c-0.5,0-1-0.4-1-1
		C327.1,27.9,327.5,27.5,328.1,27.5z M337.1,61.9c0,1.8-1.5,3.3-3.4,3.3h-46.1c-1.9,0-3.4-1.5-3.4-3.3V34.3c0-1.8,1.5-3.3,3.4-3.3
		h46.1c1.9,0,3.4,1.5,3.4,3.3V61.9z"/>
	<g>
		<g>
			<path fill="#00A94D" d="M332.5,62.3h-27.1c-1.3,0-2.4-1.1-2.4-2.4v-3.9c0-1.3,1.1-2.4,2.4-2.4h27.1c1.3,0,2.4,1.1,2.4,2.4v3.9
				C334.9,61.2,333.8,62.3,332.5,62.3z M305.4,54.8c-0.6,0-1.2,0.5-1.2,1.2v3.9c0,0.6,0.5,1.2,1.2,1.2h27.1c0.6,0,1.2-0.5,1.2-1.2
				v-3.9c0-0.6-0.5-1.2-1.2-1.2H305.4z"/>
		</g>
		<g>
			<path fill="#00A94D" d="M332.5,51.1h-27.1c-1.3,0-2.4-1.1-2.4-2.4V37.3c0-1.3,1.1-2.4,2.4-2.4h27.1c1.3,0,2.4,1.1,2.4,2.4v11.4
				C334.9,50,333.8,51.1,332.5,51.1z M305.4,36.1c-0.6,0-1.2,0.5-1.2,1.2v11.4c0,0.6,0.5,1.2,1.2,1.2h27.1c0.6,0,1.2-0.5,1.2-1.2
				V37.3c0-0.6-0.5-1.2-1.2-1.2H305.4z"/>
		</g>
		<g>
			<rect x="286.6" y="35.5" fill="#00A94D" width="12.9" height="1.8"/>
		</g>
		<g>
			<rect x="286.6" y="41.6" fill="#00A94D" width="12.9" height="1.8"/>
		</g>
		<g>
			<rect x="286.6" y="53.8" fill="#00A94D" width="12.9" height="1.8"/>
		</g>
		<g>
			<rect x="286.6" y="47.7" fill="#00A94D" width="12.9" height="1.8"/>
		</g>
		<g>
			<rect x="286.6" y="59.8" fill="#00A94D" width="12.9" height="1.8"/>
		</g>
	</g>
</g>
<g>
	<path fill="#00A94D" d="M423-0.5c-23.7,0-43,19.3-43,43c0,23.7,19.3,43,43,43c23.8,0,43-19.3,43-43C466,18.8,446.8-0.5,423-0.5z
		 M423,81.9c-21.8,0-39.4-17.6-39.4-39.4c0-21.8,17.6-39.4,39.4-39.4c21.8,0,39.4,17.6,39.4,39.4C462.4,64.3,444.8,81.9,423,81.9z"
		/>
	<g>
		<g>
			<path fill="#00A94D" d="M440.5,33.9h-17.7c-1,0-1.7-0.8-1.7-1.7v-9.5c0-1,0.8-1.7,1.7-1.7h17.7c1,0,1.7,0.8,1.7,1.7v9.5
				C442.2,33.1,441.5,33.9,440.5,33.9z M422.8,22.2c-0.2,0-0.4,0.2-0.4,0.5v9.5c0,0.2,0.2,0.4,0.4,0.4h17.7c0.2,0,0.4-0.2,0.4-0.4
				v-9.5c0-0.2-0.2-0.5-0.4-0.5H422.8z"/>
		</g>
		<path fill="#00A94D" d="M447.5,18.5L447.5,18.5c-0.1-1.1-0.9-1.9-1.9-1.9h-27.8c-1.1,0-1.9,0.8-2,1.9l0,3.7h-1.1l0-1.7
			c0-0.9-0.6-1.6-1.5-1.7c-2.7-0.3-6.9-0.3-9.8,0c-0.8,0.2-1.4,0.9-1.3,1.8v1.6h-1.7c-1.1,0-1.9,0.8-1.9,1.9l0,42.3
			c0.1,1.1,0.8,1.9,1.9,2h45.2c1,0,1.8-0.8,1.9-2L447.5,18.5z M404.4,21c2.5-0.2,5.8-0.2,8.1,0l0,40.6c-1.3,0.3-2.7,0.5-4,0.5
			c-1.3,0-2.7-0.2-4-0.5V22.3h0V21z M400.8,66.1l0-41.5h1.2l0,17v20.5c0,0.9,0.6,1.6,1.4,1.7c1.6,0.4,3.3,0.7,5,0.7c0,0,0,0,0,0
			c1.7,0,3.3-0.2,5-0.7c0.8-0.2,1.3-0.8,1.3-1.7l0-37.5h3.3l0-5.6h27.1l0,47.2L400.8,66.1z"/>
		<g>
			<path class="st1" d="M422.5,42.6h4c0.4,0,0.7,0.3,0.7,0.7v2.1c0,0.4-0.3,0.7-0.7,0.7h-4c-0.4,0-0.7-0.3-0.7-0.7v-2.1
				C421.9,42.9,422.2,42.6,422.5,42.6L422.5,42.6z"/>
		</g>
		<g>
			<path class="st1" d="M422.3,36.5h4.3c0.3,0,0.5,0.2,0.5,0.5v1.5c0,0.3-0.2,0.5-0.5,0.5h-4.3c-0.3,0-0.5-0.2-0.5-0.5V37
				C421.9,36.7,422.1,36.5,422.3,36.5L422.3,36.5z"/>
		</g>
		<g>
			<path class="st1" d="M422.5,48h4c0.4,0,0.7,0.3,0.7,0.7v2.1c0,0.4-0.3,0.7-0.7,0.7h-4c-0.4,0-0.7-0.3-0.7-0.7v-2.1
				C421.9,48.3,422.2,48,422.5,48L422.5,48z"/>
		</g>
		<g>
			<path class="st1" d="M422.5,53.4h4c0.4,0,0.7,0.3,0.7,0.7v2.1c0,0.4-0.3,0.7-0.7,0.7h-4c-0.4,0-0.7-0.3-0.7-0.7V54
				C421.9,53.7,422.2,53.4,422.5,53.4L422.5,53.4z"/>
		</g>
		<g>
			<path class="st1" d="M422.5,58.7h4c0.4,0,0.7,0.3,0.7,0.7v2.1c0,0.4-0.3,0.7-0.7,0.7h-4c-0.4,0-0.7-0.3-0.7-0.7v-2.1
				C421.9,59,422.2,58.7,422.5,58.7L422.5,58.7z"/>
		</g>
		<g>
			<path class="st1" d="M429.7,42.6h4c0.4,0,0.7,0.3,0.7,0.7v2.1c0,0.4-0.3,0.7-0.7,0.7h-4c-0.4,0-0.7-0.3-0.7-0.7v-2.1
				C429,42.9,429.3,42.6,429.7,42.6L429.7,42.6z"/>
		</g>
		<g>
			<path class="st1" d="M429.5,36.5h4.3c0.3,0,0.5,0.2,0.5,0.5v1.5c0,0.3-0.2,0.5-0.5,0.5h-4.3c-0.3,0-0.5-0.2-0.5-0.5V37
				C429,36.7,429.2,36.5,429.5,36.5L429.5,36.5z"/>
		</g>
		<g>
			<path class="st1" d="M429.7,48h4c0.4,0,0.7,0.3,0.7,0.7v2.1c0,0.4-0.3,0.7-0.7,0.7h-4c-0.4,0-0.7-0.3-0.7-0.7v-2.1
				C429,48.3,429.3,48,429.7,48L429.7,48z"/>
		</g>
		<g>
			<path class="st1" d="M429.7,53.4h4c0.4,0,0.7,0.3,0.7,0.7v2.1c0,0.4-0.3,0.7-0.7,0.7h-4c-0.4,0-0.7-0.3-0.7-0.7V54
				C429,53.7,429.3,53.4,429.7,53.4L429.7,53.4z"/>
		</g>
		<g>
			<path class="st1" d="M429.7,58.7h4c0.4,0,0.7,0.3,0.7,0.7v2.1c0,0.4-0.3,0.7-0.7,0.7h-4c-0.4,0-0.7-0.3-0.7-0.7v-2.1
				C429,59,429.3,58.7,429.7,58.7L429.7,58.7z"/>
		</g>
		<g>
			<path class="st1" d="M436.8,42.6h4c0.4,0,0.7,0.3,0.7,0.7v2.1c0,0.4-0.3,0.7-0.7,0.7h-4c-0.4,0-0.7-0.3-0.7-0.7v-2.1
				C436.2,42.9,436.5,42.6,436.8,42.6L436.8,42.6z"/>
		</g>
		<g>
			<path class="st1" d="M436.7,36.5h4.3c0.3,0,0.5,0.2,0.5,0.5v1.5c0,0.3-0.2,0.5-0.5,0.5h-4.3c-0.3,0-0.5-0.2-0.5-0.5V37
				C436.2,36.7,436.4,36.5,436.7,36.5L436.7,36.5z"/>
		</g>
		<g>
			<path class="st1" d="M436.8,48h4c0.4,0,0.7,0.3,0.7,0.7v2.1c0,0.4-0.3,0.7-0.7,0.7h-4c-0.4,0-0.7-0.3-0.7-0.7v-2.1
				C436.2,48.3,436.5,48,436.8,48L436.8,48z"/>
		</g>
		<g>
			<path class="st1" d="M436.8,53.4h4c0.4,0,0.7,0.3,0.7,0.7v2.1c0,0.4-0.3,0.7-0.7,0.7h-4c-0.4,0-0.7-0.3-0.7-0.7V54
				C436.2,53.7,436.5,53.4,436.8,53.4L436.8,53.4z"/>
		</g>
		<g>
			<path class="st1" d="M436.8,58.7h4c0.4,0,0.7,0.3,0.7,0.7v2.1c0,0.4-0.3,0.7-0.7,0.7h-4c-0.4,0-0.7-0.3-0.7-0.7v-2.1
				C436.2,59,436.5,58.7,436.8,58.7L436.8,58.7z"/>
		</g>
	</g>
</g>
<g>
	<path fill="#00A94D" d="M-106,1c-23.7,0-43,19.3-43,43c0,23.7,19.3,43,43,43c23.7,0,43-19.3,43-43C-63,20.3-82.3,1-106,1z M-106,83.4
		c-21.8,0-39.4-17.6-39.4-39.4c0-21.8,17.6-39.4,39.4-39.4c21.8,0,39.4,17.6,39.4,39.4C-66.6,65.8-84.3,83.4-106,83.4z"/>
	<g>
		<g>
			<g>
				<path fill="#00A94D" d="M-96,32.1c-1.9,0-3.5-1.6-3.5-3.5v-9.1l12.6,12.6H-96z"/>
			</g>
			<g>
				<path fill="#00A94D" d="M-121.4,19.8c-1.8,0-3.3,1.5-3.3,3.3v41.6c0,1.8,1.5,3.3,3.3,3.3h30.9c1.8,0,3.3-1.5,3.3-3.3v-33l2.1,2.1
					v30.9c0,3-2.4,5.4-5.4,5.4h-30.9c-3,0-5.4-2.4-5.4-5.4V23.2c0-3,2.4-5.4,5.4-5.4h20.1l2.1,2.1H-121.4z"/>
			</g>
		</g>
		<g>
			<path fill="#00A94D" d="M-99.2,19.9v8.7c0,1.8,1.5,3.3,3.3,3.3h8.7l2.1,2.1h-10.7c-3,0-5.4-2.4-5.4-5.4V17.8L-99.2,19.9z"/>
		</g>
	</g>
	<g>
		<path fill="#00A94D" d="M-97.3,41.4c0.7-0.7,0.7-1.8,0-2.5c-0.7-0.7-1.8-0.7-2.6,0l-5.1,5.1l2.5,2.5L-97.3,41.4z"/>
		<path fill="#00A94D" d="M-103.3,47.4l-2.6-2.5l-0.4-0.4c-0.2-0.2-0.3-0.5-0.2-0.7c0.1-0.4,0.2-0.9,0.1-1.4c0-0.6-0.2-1.1-0.4-1.6
			c-0.2-0.5-0.6-0.9-1-1.3c-0.4-0.4-0.9-0.6-1.4-0.8c-0.7-0.2-1.4-0.3-2.1-0.2c-0.4,0.1-0.5,0.5-0.2,0.8l1.7,1.7
			c0.7,0.7,0.7,1.9,0,2.6c-0.4,0.4-0.8,0.5-1.3,0.5c-0.5,0-0.9-0.2-1.3-0.5l-1.8-1.8c-0.1-0.1-0.2-0.1-0.3-0.1
			c-0.2,0-0.4,0.1-0.4,0.4c0,0.2,0,0.4,0,0.6c0,2.1,1.7,4.1,3.9,4.3c0.1,0,0.3,0,0.4,0c0.4,0,0.7,0,1.1-0.1c0.3-0.1,0.5,0,0.7,0.2
			l1.1,1.1l1.1,1.1l6.6,6.6c0.4,0.4,0.8,0.5,1.3,0.5c0.5,0,0.9-0.2,1.3-0.5c0.7-0.7,0.7-1.8,0-2.5L-103.3,47.4z"/>
		<path fill="#00A94D" d="M-109.9,49c-0.4,0.4-0.4,0.9,0,1.3c0,0,0,0.1,0,0.2l-1.8,1.7c-0.1,0.1-0.3,0.2-0.5,0.2l-0.4,0
			c-0.1,0-0.3,0-0.4,0.2l-2.2,2.7c-0.1,0.2-0.1,0.4,0,0.6l0.5,0.5l0.5,0.5c0.2,0.2,0.4,0.2,0.6,0l2.7-2.2c0.1-0.1,0.2-0.3,0.2-0.4
			l0-0.4c0-0.2,0.1-0.4,0.2-0.5l1.7-1.7c0,0,0.1,0,0.2,0c0.4,0.4,0.9,0.4,1.3,0l0.6-0.6l-2.6-2.6L-109.9,49z"/>
	</g>
</g>
<g>
	<path fill="#00A94D" d="M44,1C20.3,1,1,20.3,1,44c0,23.7,19.3,43,43,43c23.8,0,43-19.3,43-43C87,20.3,67.7,1,44,1z M44,83.4
		C22.2,83.4,4.6,65.8,4.6,44C4.6,22.2,22.2,4.6,44,4.6c21.8,0,39.4,17.6,39.4,39.4C83.4,65.8,65.8,83.4,44,83.4z"/>
	<path fill="#00A94D" d="M60.5,27.3v33.4H27.5V27.3H60.5 M60.9,25.3H27.1c-0.9,0-1.6,0.7-1.6,1.6v34.3c0,0.9,0.7,1.6,1.6,1.6h33.8
		c0.9,0,1.6-0.7,1.6-1.6V26.9C62.5,26,61.8,25.3,60.9,25.3L60.9,25.3z"/>
	<path fill="#00A94D" d="M49.8,37.3c0.4,0,0.8,0.4,0.8,0.8v11.5c0,0.4-0.4,0.8-0.8,0.8H38.3c-0.4,0-0.8-0.4-0.8-0.8V38.1
		c0-0.4,0.4-0.8,0.8-0.8H49.8 M49.8,36.5H38.3c-0.9,0-1.6,0.7-1.6,1.6v11.5c0,0.9,0.7,1.6,1.6,1.6h11.5c0.9,0,1.6-0.7,1.6-1.6V38.1
		C51.4,37.2,50.7,36.5,49.8,36.5L49.8,36.5z"/>
	<g>
		<g>
			<rect x="32.1" y="63.8" fill="#00A94D" width="2.2" height="3.6"/>
		</g>
		<g>
			<rect x="37.5" y="63.8" fill="#00A94D" width="2.2" height="3.6"/>
		</g>
		<g>
			<rect x="42.9" y="63.8" fill="#00A94D" width="2.2" height="3.6"/>
		</g>
		<g>
			<rect x="48.3" y="63.8" fill="#00A94D" width="2.2" height="3.6"/>
		</g>
		<g>
			<rect x="53.7" y="63.8" fill="#00A94D" width="2.2" height="3.6"/>
		</g>
	</g>
	<g>
		<g>
			<rect x="32.1" y="20.6" fill="#00A94D" width="2.2" height="3.6"/>
		</g>
		<g>
			<rect x="37.5" y="20.6" fill="#00A94D" width="2.2" height="3.6"/>
		</g>
		<g>
			<rect x="42.9" y="20.6" fill="#00A94D" width="2.2" height="3.6"/>
		</g>
		<g>
			<rect x="48.3" y="20.6" fill="#00A94D" width="2.2" height="3.6"/>
		</g>
		<g>
			<rect x="53.7" y="20.6" fill="#00A94D" width="2.2" height="3.6"/>
		</g>
	</g>
	<g>
		<g>
			<rect x="20.5" y="32.1" fill="#00A94D" width="3.6" height="2.2"/>
		</g>
		<g>
			<rect x="20.5" y="37.5" fill="#00A94D" width="3.6" height="2.2"/>
		</g>
		<g>
			<rect x="20.5" y="42.9" fill="#00A94D" width="3.6" height="2.2"/>
		</g>
		<g>
			<rect x="20.5" y="48.3" fill="#00A94D" width="3.6" height="2.2"/>
		</g>
		<g>
			<rect x="20.5" y="53.7" fill="#00A94D" width="3.6" height="2.2"/>
		</g>
	</g>
	<g>
		<g>
			<rect x="63.9" y="32.1" fill="#00A94D" width="3.6" height="2.2"/>
		</g>
		<g>
			<rect x="63.9" y="37.5" fill="#00A94D" width="3.6" height="2.2"/>
		</g>
		<g>
			<rect x="63.9" y="42.9" fill="#00A94D" width="3.6" height="2.2"/>
		</g>
		<g>
			<rect x="63.9" y="48.3" fill="#00A94D" width="3.6" height="2.2"/>
		</g>
		<g>
			<rect x="63.9" y="53.7" fill="#00A94D" width="3.6" height="2.2"/>
		</g>
	</g>
	<g>
		<g>
			<rect x="53.7" y="38.5" fill="#00A94D" width="2.3" height="2.2"/>
		</g>
		<g>
			<rect x="53.7" y="42.7" fill="#00A94D" width="2.3" height="2.2"/>
		</g>
		<g>
			<rect x="53.7" y="47" fill="#00A94D" width="2.3" height="2.2"/>
		</g>
	</g>
	<g>
		<g>
			<rect x="32.2" y="38.5" fill="#00A94D" width="2.3" height="2.2"/>
		</g>
		<g>
			<rect x="32.2" y="42.7" fill="#00A94D" width="2.3" height="2.2"/>
		</g>
		<g>
			<rect x="32.2" y="47" fill="#00A94D" width="2.3" height="2.2"/>
		</g>
	</g>
	<g>
		<g>
			<rect x="47.2" y="53.6" fill="#00A94D" width="2.2" height="2.3"/>
		</g>
		<g>
			<rect x="43" y="53.6" fill="#00A94D" width="2.2" height="2.3"/>
		</g>
		<g>
			<rect x="38.7" y="53.6" fill="#00A94D" width="2.2" height="2.3"/>
		</g>
	</g>
	<g>
		<g>
			<rect x="47.2" y="32.1" fill="#00A94D" width="2.2" height="2.3"/>
		</g>
		<g>
			<rect x="43" y="32.1" fill="#00A94D" width="2.2" height="2.3"/>
		</g>
		<g>
			<rect x="38.7" y="32.1" fill="#00A94D" width="2.2" height="2.3"/>
		</g>
	</g>
</g>
</svg>
