<?xml version="1.0" encoding="utf-8"?>
<!-- Generator: Adobe Illustrator 16.0.0, SVG Export Plug-In . SVG Version: 6.00 Build 0)  -->
<!DOCTYPE svg PUBLIC "-//W3C//DTD SVG 1.1//EN" "http://www.w3.org/Graphics/SVG/1.1/DTD/svg11.dtd">
<svg version="1.1" id="Layer_1" xmlns="http://www.w3.org/2000/svg" xmlns:xlink="http://www.w3.org/1999/xlink" x="0px" y="0px"
	 width="24px" height="24px" viewBox="0 0 18 18" enable-background="new 0 0 18 18" xml:space="preserve">
<g>
	<path fill="#00A94D" d="M17.341,2.716l-2.057-2.057C14.863,0.237,14.29,0,13.693,0h-1.318v3.938c0,0.311-0.252,0.563-0.563,0.563h-9
		C2.502,4.5,2.25,4.248,2.25,3.938V0H1.125C0.504,0,0,0.504,0,1.125v15.75C0,17.496,0.504,18,1.125,18h15.75
		C17.496,18,18,17.496,18,16.875V4.307C18,3.71,17.763,3.138,17.341,2.716z M15.75,15.75H2.25V9h13.5V15.75z"/>
	<rect fill="#00A94D" x="7.875" width="2.25" height="3.375"/>
</g>
</svg>
