<?xml version="1.0" encoding="utf-8"?>
<!-- Generator: Adobe Illustrator 16.0.0, SVG Export Plug-In . SVG Version: 6.00 Build 0)  -->
<!DOCTYPE svg PUBLIC "-//W3C//DTD SVG 1.1//EN" "http://www.w3.org/Graphics/SVG/1.1/DTD/svg11.dtd">
<svg version="1.1" id="Layer_1" xmlns="http://www.w3.org/2000/svg" xmlns:xlink="http://www.w3.org/1999/xlink" x="0px" y="0px"
	 width="24px" height="22px" viewBox="0 0 24 22" enable-background="new 0 0 24 22" xml:space="preserve">
<path id="ico_alerta" fill-rule="evenodd" clip-rule="evenodd" fill="#446873" d="M23.626,17.7l-4.729-8.192l-4.886-8.461
	c-0.756-1.312-3.077-1.568-4.138,0.269L5.145,9.507l-4.886,8.46c-0.755,1.311,0.182,3.449,2.303,3.449h9.459h9.771
	C23.304,21.417,24.687,19.536,23.626,17.7z M13.075,18.922c-0.313,0.283-0.677,0.426-1.092,0.426c-0.4,0-0.754-0.129-1.064-0.385
	c-0.31-0.257-0.464-0.631-0.464-1.121c0-0.475,0.151-0.848,0.452-1.115c0.302-0.268,0.661-0.4,1.076-0.4
	c0.43,0,0.798,0.131,1.104,0.396c0.305,0.264,0.458,0.638,0.458,1.12C13.544,18.28,13.389,18.64,13.075,18.922z M13.544,13.043
	c0,0.611-0.141,1.072-0.424,1.381s-0.651,0.465-1.103,0.465c-0.453,0-0.826-0.156-1.121-0.465c-0.294-0.309-0.441-0.74-0.441-1.29
	V5.903c0-0.619,0.147-1.086,0.441-1.404c0.294-0.316,0.667-0.475,1.121-0.475c0.452,0,0.82,0.163,1.103,0.487
	s0.424,0.788,0.424,1.392V13.043z"/>
</svg>
