<?xml version="1.0" encoding="utf-8"?>
<!-- Generator: Adobe Illustrator 16.0.0, SVG Export Plug-In . SVG Version: 6.00 Build 0)  -->
<!DOCTYPE svg PUBLIC "-//W3C//DTD SVG 1.1//EN" "http://www.w3.org/Graphics/SVG/1.1/DTD/svg11.dtd">
<svg version="1.1" id="Layer_1" xmlns="http://www.w3.org/2000/svg" xmlns:xlink="http://www.w3.org/1999/xlink" x="0px" y="0px"
	 width="24px" height="24px" viewBox="0 0 24.333 24.333" enable-background="new 0 0 24.333 24.333" xml:space="preserve">
<g>
	<path id="ico_x_edit" fill="#446873" d="M12.167,0C5.447,0,0,5.447,0,12.167c0,6.719,5.447,12.167,12.167,12.167c6.72,0,12.167-5.447,12.167-12.167
		C24.333,5.447,18.886,0,12.167,0z M12.167,23.312c-6.155,0-11.146-4.99-11.146-11.145c0-6.156,4.99-11.146,11.146-11.146
		s11.146,4.99,11.146,11.146C23.312,18.322,18.322,23.312,12.167,23.312z"/>
	<path id="ico_x_edit" fill="#446873" d="M18.535,7.71c0.105-0.194,0.17-0.413,0.17-0.65c0-0.76-0.617-1.377-1.377-1.377
		c-0.395,0-0.748,0.168-1,0.434c0,0-1.942,1.932-4.157,4.138c-2.33-2.337-4.447-4.458-4.46-4.457
		c-0.194-0.104-0.413-0.169-0.65-0.169c-0.76,0-1.377,0.617-1.377,1.377c0,0.395,0.168,0.748,0.434,0.999
		c0,0.001,1.932,1.943,4.138,4.158c-2.337,2.33-4.458,4.447-4.457,4.459c-0.104,0.195-0.169,0.414-0.169,0.65
		c0,0.76,0.617,1.377,1.377,1.377c0.395,0,0.748-0.168,0.999-0.434c0.001,0,1.943-1.932,4.158-4.138
		c2.33,2.337,4.447,4.458,4.459,4.456c0.195,0.105,0.414,0.17,0.65,0.17c0.76,0,1.377-0.617,1.377-1.377
		c0-0.395-0.168-0.748-0.434-1c0,0-1.932-1.942-4.138-4.157C16.416,9.841,18.537,7.724,18.535,7.71z"/>
</g>
</svg>
