<?xml version="1.0" encoding="utf-8"?>
<!DOCTYPE svg PUBLIC "-//W3C//DTD SVG 1.1//EN" "http://www.w3.org/Graphics/SVG/1.1/DTD/svg11.dtd">
<svg version="1.1" id="Layer_1" xmlns="http://www.w3.org/2000/svg" xmlns:xlink="http://www.w3.org/1999/xlink" x="0px" y="0px"
	 width="26px" height="26px" viewBox="0 0 24.938 30" enable-background="new 0 0 24.938 30" xml:space="preserve">
	<g>
		<path id="ico_copiar" fill="#446873" d="M20.915,6.177H8.363c-0.473,0-0.856,0.384-0.856,0.856c0,0.473,0.383,0.856,0.856,0.856h12.551
			c0.473,0,0.855-0.383,0.855-0.856C21.77,6.561,21.387,6.177,20.915,6.177z"/>
		<path id="ico_copiar" fill="#446873" d="M20.915,10.251H8.363c-0.473,0-0.856,0.383-0.856,0.855c0,0.473,0.383,0.856,0.856,0.856h12.551
			c0.473,0,0.855-0.383,0.855-0.856C21.77,10.634,21.387,10.251,20.915,10.251z"/>
		<path id="ico_copiar" fill="#446873" d="M20.915,14.324H8.363c-0.473,0-0.856,0.383-0.856,0.855c0,0.474,0.383,0.856,0.856,0.856h12.551
			c0.473,0,0.855-0.382,0.855-0.856C21.77,14.707,21.387,14.324,20.915,14.324z"/>
		<path id="ico_copiar" fill="#446873" d="M20.915,18.397H8.363c-0.473,0-0.856,0.383-0.856,0.856c0,0.473,0.383,0.855,0.856,0.855h12.551
			c0.473,0,0.855-0.383,0.855-0.855C21.77,18.78,21.387,18.397,20.915,18.397z"/>
		<path id="ico_copiar" fill="#446873" d="M22.797,0H6.227c-1.18,0-2.14,0.96-2.14,2.14v1.367H2.14C0.96,3.506,0,4.466,0,5.645V27.86
			C0,29.04,0.96,30,2.14,30H18.71c1.18,0,2.14-0.96,2.14-2.14v-1.365h1.947c1.181,0,2.141-0.961,2.141-2.141V2.14
			C24.938,0.96,23.978,0,22.797,0z M19.139,27.86c0,0.236-0.192,0.429-0.429,0.429H2.14c-0.235,0-0.428-0.192-0.428-0.429V5.645
			c0-0.235,0.193-0.428,0.428-0.428h1.947v19.137c0,1.18,0.96,2.141,2.14,2.141h12.912V27.86z M23.226,24.354
			c0,0.235-0.192,0.428-0.429,0.428H6.227c-0.236,0-0.428-0.192-0.428-0.428V2.14c0-0.236,0.191-0.428,0.428-0.428h16.57
			c0.236,0,0.429,0.192,0.429,0.428V24.354z"/>
	</g>
</svg>