<?xml version="1.0" encoding="utf-8"?>
<!-- Generator: Adobe Illustrator 16.0.0, SVG Export Plug-In . SVG Version: 6.00 Build 0)  -->
<!DOCTYPE svg PUBLIC "-//W3C//DTD SVG 1.1//EN" "http://www.w3.org/Graphics/SVG/1.1/DTD/svg11.dtd">
<svg version="1.1" id="Layer_1" xmlns="http://www.w3.org/2000/svg" xmlns:xlink="http://www.w3.org/1999/xlink" x="0px" y="0px"
	 width="26px" height="26px" viewBox="0 0 40.092 40.064" enable-background="new 0 0 40.092 40.064" xml:space="preserve">
	<path id="ico_download" fill="#446873" d="M30.121,22.087c-0.429,0-0.774,0.347-0.774,0.772v5.345h-18.7v-5.344c0-0.425-0.348-0.772-0.774-0.772
		c-0.43,0-0.779,0.347-0.779,0.772v6.12c0,0.428,0.349,0.775,0.779,0.775h20.248c0.429,0,0.776-0.348,0.776-0.776v-6.12
		C30.897,22.435,30.551,22.087,30.121,22.087z"/>
	<path id="ico_download" fill="#446873" d="M27.756,18.031c-0.121-0.29-0.402-0.478-0.716-0.478h-2.881V8.739c0-0.426-0.346-0.773-0.774-0.773h-6.763
		c-0.428,0-0.777,0.348-0.777,0.776v8.813h-2.886c-0.428,0-0.776,0.347-0.776,0.775c0,0.252,0.121,0.488,0.281,0.596l6.988,7.023
		c0.285,0.288,0.816,0.288,1.104,0l7.03-7.07C27.811,18.655,27.877,18.32,27.756,18.031z M23.383,19.108h1.787L20.002,24.3
		l-5.165-5.193h1.785c0.428,0,0.777-0.35,0.777-0.777V9.519h5.207v8.812C22.606,18.758,22.953,19.108,23.383,19.108z M20.313,25.712
		C20.313,25.712,20.313,25.712,20.313,25.712L20.313,25.712L20.313,25.712z"/>
	<g>
		<path id="ico_download" fill="#446873" d="M19.996,39.326c-10.542,0-19.125-8.577-19.125-19.121c0-10.546,8.583-19.127,19.125-19.127
			c10.546,0,19.127,8.581,19.127,19.127C39.123,30.749,30.542,39.326,19.996,39.326z M19.996,2.426
			c-9.803,0-17.779,7.975-17.779,17.779c0,9.799,7.977,17.776,17.779,17.776c9.805,0,17.78-7.979,17.78-17.776
			C37.776,10.4,29.8,2.426,19.996,2.426z"/>
	</g>
</svg>
