<?xml version="1.0" encoding="utf-8"?>
<!-- Generator: Adobe Illustrator 21.1.0, SVG Export Plug-In . SVG Version: 6.00 Build 0)  -->
<svg version="1.1" id="Camada_1" xmlns="http://www.w3.org/2000/svg" xmlns:xlink="http://www.w3.org/1999/xlink" width="100px" height="100px" x="0px" y="0px"
	 viewBox="0 0 88 88" style="enable-background:new 0 0 88 88;" xml:space="preserve">
<g>
	<path fill="#00A94D" d="M44,101c-23.7,0-43,19.3-43,43c0,23.7,19.3,43,43,43c23.8,0,43-19.3,43-43C87,120.3,67.7,101,44,101z
		 M44,183.4c-21.8,0-39.4-17.6-39.4-39.4c0-21.8,17.6-39.4,39.4-39.4c21.8,0,39.4,17.6,39.4,39.4C83.4,165.8,65.8,183.4,44,183.4z"
		/>
	<path fill="#00A94D" d="M68.9,123.3H19.1c-1.9,0-3.4,1.5-3.4,3.4v34.5c0,1.9,1.5,3.4,3.4,3.4h49.9c1.9,0,3.4-1.5,3.4-3.4v-34.5
		C72.4,124.9,70.8,123.3,68.9,123.3z M68.5,125c0.5,0,1,0.4,1,1c0,0.5-0.4,1-1,1c-0.5,0-1-0.4-1-1C67.6,125.4,68,125,68.5,125z
		 M65,125c0.5,0,1,0.4,1,1c0,0.5-0.4,1-1,1c-0.5,0-1-0.4-1-1C64,125.4,64.4,125,65,125z M61.4,125c0.5,0,1,0.4,1,1c0,0.5-0.4,1-1,1
		c-0.5,0-1-0.4-1-1C60.4,125.4,60.9,125,61.4,125z M70.5,159.5c0,1.8-1.5,3.3-3.4,3.3H21c-1.9,0-3.4-1.5-3.4-3.3v-27.6
		c0-1.8,1.5-3.3,3.4-3.3H67c1.9,0,3.4,1.5,3.4,3.3V159.5z"/>
	<g>
		<g>
			<path fill="#00A94D" d="M65.8,159.8H38.7c-1.3,0-2.4-1.1-2.4-2.4v-3.9c0-1.3,1.1-2.4,2.4-2.4h27.1c1.3,0,2.4,1.1,2.4,2.4v3.9
				C68.2,158.7,67.1,159.8,65.8,159.8z M38.7,152.3c-0.6,0-1.2,0.5-1.2,1.2v3.9c0,0.6,0.5,1.2,1.2,1.2h27.1c0.6,0,1.2-0.5,1.2-1.2
				v-3.9c0-0.6-0.5-1.2-1.2-1.2H38.7z"/>
		</g>
		<g>
			<path fill="#00A94D" d="M65.8,148.6H38.7c-1.3,0-2.4-1.1-2.4-2.4v-11.4c0-1.3,1.1-2.4,2.4-2.4h27.1c1.3,0,2.4,1.1,2.4,2.4v11.4
				C68.2,147.5,67.1,148.6,65.8,148.6z M38.7,133.6c-0.6,0-1.2,0.5-1.2,1.2v11.4c0,0.6,0.5,1.2,1.2,1.2h27.1c0.6,0,1.2-0.5,1.2-1.2
				v-11.4c0-0.6-0.5-1.2-1.2-1.2H38.7z"/>
		</g>
		<g>
			<rect x="19.9" y="133" fill="#00A94D" width="12.9" height="1.8"/>
		</g>
		<g>
			<rect x="19.9" y="139.1" fill="#00A94D" width="12.9" height="1.8"/>
		</g>
		<g>
			<rect x="19.9" y="151.3" fill="#00A94D" width="12.9" height="1.8"/>
		</g>
		<g>
			<rect x="19.9" y="145.2" fill="#00A94D" width="12.9" height="1.8"/>
		</g>
		<g>
			<rect x="19.9" y="157.4" fill="#00A94D" width="12.9" height="1.8"/>
		</g>
	</g>
</g>
<g>
	<path fill="#00A94D" d="M44,1C20.3,1,1,20.3,1,44c0,23.7,19.3,43,43,43c23.8,0,43-19.3,43-43C87,20.3,67.7,1,44,1z M44,83.4
		C22.2,83.4,4.6,65.8,4.6,44C4.6,22.2,22.2,4.6,44,4.6c21.8,0,39.4,17.6,39.4,39.4C83.4,65.8,65.8,83.4,44,83.4z"/>
	<g>
		<g>
			<path fill="#00A94D" d="M61.5,35.4H43.8c-1,0-1.7-0.8-1.7-1.7v-9.5c0-1,0.8-1.7,1.7-1.7h17.7c1,0,1.7,0.8,1.7,1.7v9.5
				C63.2,34.6,62.4,35.4,61.5,35.4z M43.8,23.7c-0.2,0-0.4,0.2-0.4,0.5v9.5c0,0.2,0.2,0.4,0.4,0.4h17.7c0.2,0,0.4-0.2,0.4-0.4v-9.5
				c0-0.2-0.2-0.5-0.4-0.5H43.8z"/>
		</g>
		<path fill="#00A94D" d="M68.5,20L68.5,20c-0.1-1.1-0.9-1.9-1.9-1.9H38.8c-1.1,0-1.9,0.8-2,1.9l0,3.7h-1.1l0-1.7
			c0-0.9-0.6-1.6-1.5-1.7c-2.7-0.3-6.9-0.3-9.8,0c-0.8,0.2-1.4,0.9-1.3,1.8v1.6h-1.7c-1.1,0-1.9,0.8-1.9,1.9l0,42.3
			c0.1,1.1,0.8,1.9,1.9,2h45.2c1,0,1.8-0.8,1.9-2L68.5,20z M25.4,22.5c2.5-0.2,5.8-0.2,8.1,0l0,40.6c-1.3,0.3-2.7,0.5-4,0.5
			c-1.3,0-2.7-0.2-4-0.5V23.7h0V22.5z M21.8,67.6l0-41.5h1.2l0,17v20.5c0,0.9,0.6,1.6,1.4,1.7c1.6,0.4,3.3,0.7,5,0.7c0,0,0,0,0,0
			c1.7,0,3.3-0.2,5-0.7c0.8-0.2,1.3-0.8,1.3-1.7l0-37.5h3.3l0-5.6h27.1l0,47.2L21.8,67.6z"/>
		<g>
			<path fill="#00A94D" d="M43.5,44.1h4c0.4,0,0.7,0.3,0.7,0.7v2.1c0,0.4-0.3,0.7-0.7,0.7h-4c-0.4,0-0.7-0.3-0.7-0.7v-2.1
				C42.8,44.4,43.1,44.1,43.5,44.1L43.5,44.1z"/>
		</g>
		<g>
			<path fill="#00A94D" d="M43.3,38h4.3c0.3,0,0.5,0.2,0.5,0.5V40c0,0.3-0.2,0.5-0.5,0.5h-4.3c-0.3,0-0.5-0.2-0.5-0.5v-1.5
				C42.8,38.2,43.1,38,43.3,38L43.3,38z"/>
		</g>
		<g>
			<path fill="#00A94D" d="M43.5,49.5h4c0.4,0,0.7,0.3,0.7,0.7v2.1c0,0.4-0.3,0.7-0.7,0.7h-4c-0.4,0-0.7-0.3-0.7-0.7v-2.1
				C42.8,49.8,43.1,49.5,43.5,49.5L43.5,49.5z"/>
		</g>
		<g>
			<path fill="#00A94D" d="M43.5,54.9h4c0.4,0,0.7,0.3,0.7,0.7v2.1c0,0.4-0.3,0.7-0.7,0.7h-4c-0.4,0-0.7-0.3-0.7-0.7v-2.1
				C42.8,55.2,43.1,54.9,43.5,54.9L43.5,54.9z"/>
		</g>
		<g>
			<path fill="#00A94D" d="M43.5,60.2h4c0.4,0,0.7,0.3,0.7,0.7V63c0,0.4-0.3,0.7-0.7,0.7h-4c-0.4,0-0.7-0.3-0.7-0.7v-2.1
				C42.8,60.5,43.1,60.2,43.5,60.2L43.5,60.2z"/>
		</g>
		<g>
			<path fill="#00A94D" d="M50.7,44.1h4c0.4,0,0.7,0.3,0.7,0.7v2.1c0,0.4-0.3,0.7-0.7,0.7h-4c-0.4,0-0.7-0.3-0.7-0.7v-2.1
				C50,44.4,50.3,44.1,50.7,44.1L50.7,44.1z"/>
		</g>
		<g>
			<path fill="#00A94D" d="M50.5,38h4.3c0.3,0,0.5,0.2,0.5,0.5V40c0,0.3-0.2,0.5-0.5,0.5h-4.3c-0.3,0-0.5-0.2-0.5-0.5v-1.5
				C50,38.2,50.2,38,50.5,38L50.5,38z"/>
		</g>
		<g>
			<path fill="#00A94D" d="M50.7,49.5h4c0.4,0,0.7,0.3,0.7,0.7v2.1c0,0.4-0.3,0.7-0.7,0.7h-4c-0.4,0-0.7-0.3-0.7-0.7v-2.1
				C50,49.8,50.3,49.5,50.7,49.5L50.7,49.5z"/>
		</g>
		<g>
			<path fill="#00A94D" d="M50.7,54.9h4c0.4,0,0.7,0.3,0.7,0.7v2.1c0,0.4-0.3,0.7-0.7,0.7h-4c-0.4,0-0.7-0.3-0.7-0.7v-2.1
				C50,55.2,50.3,54.9,50.7,54.9L50.7,54.9z"/>
		</g>
		<g>
			<path fill="#00A94D" d="M50.7,60.2h4c0.4,0,0.7,0.3,0.7,0.7V63c0,0.4-0.3,0.7-0.7,0.7h-4c-0.4,0-0.7-0.3-0.7-0.7v-2.1
				C50,60.5,50.3,60.2,50.7,60.2L50.7,60.2z"/>
		</g>
		<g>
			<path fill="#00A94D" d="M57.8,44.1h4c0.4,0,0.7,0.3,0.7,0.7v2.1c0,0.4-0.3,0.7-0.7,0.7h-4c-0.4,0-0.7-0.3-0.7-0.7v-2.1
				C57.2,44.4,57.5,44.1,57.8,44.1L57.8,44.1z"/>
		</g>
		<g>
			<path fill="#00A94D" d="M57.6,38H62c0.3,0,0.5,0.2,0.5,0.5V40c0,0.3-0.2,0.5-0.5,0.5h-4.3c-0.3,0-0.5-0.2-0.5-0.5v-1.5
				C57.2,38.2,57.4,38,57.6,38L57.6,38z"/>
		</g>
		<g>
			<path fill="#00A94D" d="M57.8,49.5h4c0.4,0,0.7,0.3,0.7,0.7v2.1c0,0.4-0.3,0.7-0.7,0.7h-4c-0.4,0-0.7-0.3-0.7-0.7v-2.1
				C57.2,49.8,57.5,49.5,57.8,49.5L57.8,49.5z"/>
		</g>
		<g>
			<path fill="#00A94D" d="M57.8,54.9h4c0.4,0,0.7,0.3,0.7,0.7v2.1c0,0.4-0.3,0.7-0.7,0.7h-4c-0.4,0-0.7-0.3-0.7-0.7v-2.1
				C57.2,55.2,57.5,54.9,57.8,54.9L57.8,54.9z"/>
		</g>
		<g>
			<path fill="#00A94D" d="M57.8,60.2h4c0.4,0,0.7,0.3,0.7,0.7V63c0,0.4-0.3,0.7-0.7,0.7h-4c-0.4,0-0.7-0.3-0.7-0.7v-2.1
				C57.2,60.5,57.5,60.2,57.8,60.2L57.8,60.2z"/>
		</g>
	</g>
</g>
<g>
	<path fill="#00A94D" d="M-106,1c-23.7,0-43,19.3-43,43c0,23.7,19.3,43,43,43c23.7,0,43-19.3,43-43C-63,20.3-82.3,1-106,1z M-106,83.4
		c-21.8,0-39.4-17.6-39.4-39.4c0-21.8,17.6-39.4,39.4-39.4c21.8,0,39.4,17.6,39.4,39.4C-66.6,65.8-84.3,83.4-106,83.4z"/>
	<g>
		<g>
			<g>
				<path fill="#00A94D" d="M-96,32.1c-1.9,0-3.5-1.6-3.5-3.5v-9.1l12.6,12.6H-96z"/>
			</g>
			<g>
				<path fill="#00A94D" d="M-121.4,19.8c-1.8,0-3.3,1.5-3.3,3.3v41.6c0,1.8,1.5,3.3,3.3,3.3h30.9c1.8,0,3.3-1.5,3.3-3.3v-33l2.1,2.1
					v30.9c0,3-2.4,5.4-5.4,5.4h-30.9c-3,0-5.4-2.4-5.4-5.4V23.2c0-3,2.4-5.4,5.4-5.4h20.1l2.1,2.1H-121.4z"/>
			</g>
		</g>
		<g>
			<path fill="#00A94D" d="M-99.2,19.9v8.7c0,1.8,1.5,3.3,3.3,3.3h8.7l2.1,2.1h-10.7c-3,0-5.4-2.4-5.4-5.4V17.8L-99.2,19.9z"/>
		</g>
	</g>
	<g>
		<path fill="#00A94D" d="M-97.3,41.4c0.7-0.7,0.7-1.8,0-2.5c-0.7-0.7-1.8-0.7-2.6,0l-5.1,5.1l2.5,2.5L-97.3,41.4z"/>
		<path fill="#00A94D" d="M-103.3,47.4l-2.6-2.5l-0.4-0.4c-0.2-0.2-0.3-0.5-0.2-0.7c0.1-0.4,0.2-0.9,0.1-1.4c0-0.6-0.2-1.1-0.4-1.6
			c-0.2-0.5-0.6-0.9-1-1.3c-0.4-0.4-0.9-0.6-1.4-0.8c-0.7-0.2-1.4-0.3-2.1-0.2c-0.4,0.1-0.5,0.5-0.2,0.8l1.7,1.7
			c0.7,0.7,0.7,1.9,0,2.6c-0.4,0.4-0.8,0.5-1.3,0.5c-0.5,0-0.9-0.2-1.3-0.5l-1.8-1.8c-0.1-0.1-0.2-0.1-0.3-0.1
			c-0.2,0-0.4,0.1-0.4,0.4c0,0.2,0,0.4,0,0.6c0,2.1,1.7,4.1,3.9,4.3c0.1,0,0.3,0,0.4,0c0.4,0,0.7,0,1.1-0.1c0.3-0.1,0.5,0,0.7,0.2
			l1.1,1.1l1.1,1.1l6.6,6.6c0.4,0.4,0.8,0.5,1.3,0.5c0.5,0,0.9-0.2,1.3-0.5c0.7-0.7,0.7-1.8,0-2.5L-103.3,47.4z"/>
		<path fill="#00A94D" d="M-109.9,49c-0.4,0.4-0.4,0.9,0,1.3c0,0,0,0.1,0,0.2l-1.8,1.7c-0.1,0.1-0.3,0.2-0.5,0.2l-0.4,0
			c-0.1,0-0.3,0-0.4,0.2l-2.2,2.7c-0.1,0.2-0.1,0.4,0,0.6l0.5,0.5l0.5,0.5c0.2,0.2,0.4,0.2,0.6,0l2.7-2.2c0.1-0.1,0.2-0.3,0.2-0.4
			l0-0.4c0-0.2,0.1-0.4,0.2-0.5l1.7-1.7c0,0,0.1,0,0.2,0c0.4,0.4,0.9,0.4,1.3,0l0.6-0.6l-2.6-2.6L-109.9,49z"/>
	</g>
</g>
<g>
	<path fill="#00A94D" d="M164,1c-23.7,0-43,19.3-43,43c0,23.7,19.3,43,43,43c23.8,0,43-19.3,43-43C207,20.3,187.8,1,164,1z M164,83.4
		c-21.8,0-39.4-17.6-39.4-39.4c0-21.8,17.6-39.4,39.4-39.4c21.8,0,39.4,17.6,39.4,39.4C203.4,65.8,185.8,83.4,164,83.4z"/>
	<path fill="#00A94D" d="M180.5,27.3v33.4h-32.9V27.3H180.5 M180.9,25.3h-33.8c-0.9,0-1.6,0.7-1.6,1.6v34.3c0,0.9,0.7,1.6,1.6,1.6h33.8
		c0.9,0,1.6-0.7,1.6-1.6V26.9C182.5,26,181.8,25.3,180.9,25.3L180.9,25.3z"/>
	<path fill="#00A94D" d="M169.8,37.3c0.4,0,0.8,0.4,0.8,0.8v11.5c0,0.4-0.4,0.8-0.8,0.8h-11.5c-0.4,0-0.8-0.4-0.8-0.8V38.1
		c0-0.4,0.4-0.8,0.8-0.8H169.8 M169.8,36.5h-11.5c-0.9,0-1.6,0.7-1.6,1.6v11.5c0,0.9,0.7,1.6,1.6,1.6h11.5c0.9,0,1.6-0.7,1.6-1.6
		V38.1C171.4,37.2,170.7,36.5,169.8,36.5L169.8,36.5z"/>
	<g>
		<g>
			<rect x="152.1" y="63.8" fill="#00A94D" width="2.2" height="3.6"/>
		</g>
		<g>
			<rect x="157.5" y="63.8" fill="#00A94D" width="2.2" height="3.6"/>
		</g>
		<g>
			<rect x="162.9" y="63.8" fill="#00A94D" width="2.2" height="3.6"/>
		</g>
		<g>
			<rect x="168.3" y="63.8" fill="#00A94D" width="2.2" height="3.6"/>
		</g>
		<g>
			<rect x="173.7" y="63.8" fill="#00A94D" width="2.2" height="3.6"/>
		</g>
	</g>
	<g>
		<g>
			<rect x="152.1" y="20.6" fill="#00A94D" width="2.2" height="3.6"/>
		</g>
		<g>
			<rect x="157.5" y="20.6" fill="#00A94D" width="2.2" height="3.6"/>
		</g>
		<g>
			<rect x="162.9" y="20.6" fill="#00A94D" width="2.2" height="3.6"/>
		</g>
		<g>
			<rect x="168.3" y="20.6" fill="#00A94D" width="2.2" height="3.6"/>
		</g>
		<g>
			<rect x="173.7" y="20.6" fill="#00A94D" width="2.2" height="3.6"/>
		</g>
	</g>
	<g>
		<g>
			<rect x="140.5" y="32.1" fill="#00A94D" width="3.6" height="2.2"/>
		</g>
		<g>
			<rect x="140.5" y="37.5" fill="#00A94D" width="3.6" height="2.2"/>
		</g>
		<g>
			<rect x="140.5" y="42.9" fill="#00A94D" width="3.6" height="2.2"/>
		</g>
		<g>
			<rect x="140.5" y="48.3" fill="#00A94D" width="3.6" height="2.2"/>
		</g>
		<g>
			<rect x="140.5" y="53.7" fill="#00A94D" width="3.6" height="2.2"/>
		</g>
	</g>
	<g>
		<g>
			<rect x="183.9" y="32.1" fill="#00A94D" width="3.6" height="2.2"/>
		</g>
		<g>
			<rect x="183.9" y="37.5" fill="#00A94D" width="3.6" height="2.2"/>
		</g>
		<g>
			<rect x="183.9" y="42.9" fill="#00A94D" width="3.6" height="2.2"/>
		</g>
		<g>
			<rect x="183.9" y="48.3" fill="#00A94D" width="3.6" height="2.2"/>
		</g>
		<g>
			<rect x="183.9" y="53.7" fill="#00A94D" width="3.6" height="2.2"/>
		</g>
	</g>
	<g>
		<g>
			<rect x="173.7" y="38.5" fill="#00A94D" width="2.3" height="2.2"/>
		</g>
		<g>
			<rect x="173.7" y="42.7" fill="#00A94D" width="2.3" height="2.2"/>
		</g>
		<g>
			<rect x="173.7" y="47" fill="#00A94D" width="2.3" height="2.2"/>
		</g>
	</g>
	<g>
		<g>
			<rect x="152.2" y="38.5" fill="#00A94D" width="2.3" height="2.2"/>
		</g>
		<g>
			<rect x="152.2" y="42.7" fill="#00A94D" width="2.3" height="2.2"/>
		</g>
		<g>
			<rect x="152.2" y="47" fill="#00A94D" width="2.3" height="2.2"/>
		</g>
	</g>
	<g>
		<g>
			<rect x="167.2" y="53.6" fill="#00A94D" width="2.2" height="2.3"/>
		</g>
		<g>
			<rect x="163" y="53.6" fill="#00A94D" width="2.2" height="2.3"/>
		</g>
		<g>
			<rect x="158.7" y="53.6" fill="#00A94D" width="2.2" height="2.3"/>
		</g>
	</g>
	<g>
		<g>
			<rect x="167.2" y="32.1" fill="#00A94D" width="2.2" height="2.3"/>
		</g>
		<g>
			<rect x="163" y="32.1" fill="#00A94D" width="2.2" height="2.3"/>
		</g>
		<g>
			<rect x="158.7" y="32.1" fill="#00A94D" width="2.2" height="2.3"/>
		</g>
	</g>
</g>
</svg>
